<svg xmlns="http://www.w3.org/2000/svg" xmlns:xlink="http://www.w3.org/1999/xlink" version="1.1" x="0px" y="0px" width="100px" height="100px" viewBox="0 0 100 100" enable-background="new 0 0 100 100" xml:space="preserve">
<g id="Captions">
</g>
<g id="Your_Icon">
	<path d="M85,15.614C85,12.514,82.487,10,79.387,10H21.613C18.513,10,16,12.514,16,15.614v68.771C16,87.486,18.513,90,21.613,90   h57.773C82.487,90,85,87.486,85,84.386V15.614z M74,79H27V21h47V79z"/>
	<path d="M36.523,55h28.073c3.101,0,5.614-2.4,5.614-5.5S67.697,44,64.597,44H36.523c-3.101,0-5.614,2.4-5.614,5.5   S33.423,55,36.523,55z"/>
	<path d="M36.523,72h28.073c3.101,0,5.614-2.4,5.614-5.5S67.697,61,64.597,61H36.523c-3.101,0-5.614,2.4-5.614,5.5   S33.423,72,36.523,72z"/>
	<path d="M36.523,38h28.073c3.101,0,5.614-2.399,5.614-5.5S67.697,27,64.597,27H36.523c-3.101,0-5.614,2.399-5.614,5.5   S33.423,38,36.523,38z"/>
</g>
</svg>